<svg width="33" height="33" viewBox="0 0 33 33" fill="none" xmlns="http://www.w3.org/2000/svg">
<path fill-rule="evenodd" clip-rule="evenodd" d="M3.21236 16.9975C3.21366 18.6784 3.54603 20.3426 4.19049 21.8951C4.83495 23.4476 5.77888 24.8579 6.96838 26.0456C8.15789 27.2333 9.56968 28.175 11.1231 28.8171C12.6766 29.4591 14.3413 29.7889 16.0222 29.7876C17.7032 29.7863 19.3674 29.454 20.9198 28.8095C22.4723 28.165 23.8826 27.2211 25.0703 26.0316C26.258 24.8421 27.1997 23.4303 27.8418 21.8768C28.4839 20.3234 28.8137 18.6587 28.8124 16.9777C28.8097 13.583 27.4586 10.3283 25.0563 7.92968C22.654 5.53107 19.3972 4.18501 16.0025 4.18764C12.6077 4.19026 9.35301 5.54134 6.9544 7.94366C4.55579 10.346 3.20974 13.6028 3.21236 16.9975ZM1.23502 23.122C0.429443 21.1814 0.0139839 19.1011 0.0123607 17C0.00908254 12.7565 1.69165 8.68557 4.68991 5.68267C7.68817 2.67977 11.7565 0.990918 16 0.987639C20.2435 0.984361 24.3144 2.66693 27.3173 5.66519C30.3202 8.66345 32.0091 12.7318 32.0124 16.9753C32.014 19.0764 31.6017 21.1573 30.7992 23.0991C29.9966 25.041 28.8194 26.8057 27.3348 28.2926C25.8502 29.7795 24.0873 30.9594 22.1467 31.765C20.2061 32.5705 18.1259 32.986 16.0247 32.9876C13.9236 32.9893 11.8427 32.577 9.90084 31.7744C7.95901 30.9719 6.19428 29.7947 4.70739 28.3101C3.22051 26.8255 2.04059 25.0626 1.23502 23.122ZM8.01236 16.9938C8.01168 16.1102 8.72747 15.3933 9.61112 15.3926L18.5484 15.3857L16.4782 13.3186C15.8528 12.6943 15.852 11.6812 16.4764 11.0559C17.1008 10.4306 18.1138 10.4298 18.7391 11.0542L23.5428 15.8504C24.1682 16.4748 24.169 17.4879 23.5446 18.1132L18.7483 22.9169C18.124 23.5422 17.1109 23.543 16.4856 22.9186C15.8602 22.2943 15.8595 21.2812 16.4838 20.6559L18.5509 18.5857L9.61359 18.5926C8.72994 18.5933 8.01304 17.8775 8.01236 16.9938Z" fill="white"/>
</svg>
