<svg width="21" height="20" viewBox="0 0 21 20" fill="none" xmlns="http://www.w3.org/2000/svg">
<path fill-rule="evenodd" clip-rule="evenodd" d="M8.00154 2.00618C6.41024 2.00741 4.88461 2.64073 3.76026 3.76682C2.63591 4.8929 2.00495 6.41951 2.00618 8.01081C2.00679 8.79874 2.16258 9.57884 2.46467 10.3066C2.76676 11.0343 3.20923 11.6954 3.76681 12.2521C4.32439 12.8088 4.98617 13.2503 5.71436 13.5512C6.44254 13.8522 7.22288 14.0068 8.01081 14.0062C8.79874 14.0056 9.57883 13.8498 10.3066 13.5477C11.0343 13.2456 11.6954 12.8031 12.2521 12.2455C12.8088 11.688 13.2503 11.0262 13.5512 10.298C13.8522 9.56981 14.0068 8.78947 14.0062 8.00154C14.0049 6.41024 13.3716 4.88461 12.2455 3.76026C11.1194 2.63591 9.59283 2.00495 8.00154 2.00618ZM2.34495 2.35369C3.84408 0.852245 5.87826 0.0078184 7.99999 0.00617927C10.1217 0.00454014 12.1572 0.845823 13.6586 2.34495C15.1601 3.84409 16.0045 5.87826 16.0062 8C16.007 9.05057 15.8009 10.091 15.3996 11.0619C15.1262 11.7232 14.766 12.3434 14.3295 12.9067L19.7212 18.29C20.112 18.6802 20.1125 19.3134 19.7223 19.7042C19.3321 20.0951 18.6989 20.0956 18.3081 19.7053L12.9164 14.322C12.3539 14.7593 11.7342 15.1205 11.0733 15.3948C10.1031 15.7976 9.06293 16.0054 8.01235 16.0062C6.96178 16.007 5.92133 15.8009 4.95042 15.3996C3.9795 14.9983 3.09714 14.4097 2.35369 13.6674C1.61025 12.9251 1.0203 12.0436 0.617509 11.0734C0.214722 10.1031 0.00699197 9.06293 0.00618035 8.01236C0.00454128 5.89063 0.845823 3.85514 2.34495 2.35369Z" fill="#E5E5E5"/>
</svg>
